<?xml version="1.0" encoding="utf-8"?>
<!-- Generator: Adobe Illustrator 16.0.0, SVG Export Plug-In . SVG Version: 6.00 Build 0)  -->
<!DOCTYPE svg PUBLIC "-//W3C//DTD SVG 1.1//EN" "http://www.w3.org/Graphics/SVG/1.1/DTD/svg11.dtd">
<svg version="1.1" id="Capa_1" xmlns="http://www.w3.org/2000/svg" xmlns:xlink="http://www.w3.org/1999/xlink" x="0px" y="0px"
	 width="783.421px" height="253.089px" viewBox="0 0 783.421 253.089" enable-background="new 0 0 783.421 253.089"
	 xml:space="preserve">
<g>
	<path fill="#68A7DD" d="M764.741,7.839c-8.312-0.199-11.893,5.021-11.893,5.021s-3.268-2.005-7.261-1.438
		c-2.803,0.399-4.534,1.354-5.703,2.321c-0.661,0.341-1.124,0.714-1.417,1.181c-0.003-0.001-0.005-0.002-0.007-0.004
		c-4.133-2.615-167.188,2.897-235.018-3.268c-67.86-6.168-208.181-13.719-258.89-10.868C170.417,4.954,81.891,12.682,32.539,59.978
		s-48.279,156.608,45.736,188.82c55.207,14.156,93.246-12.681,104.416-16.238c0.199-0.064,2.164-0.854,2.182-0.862
		c10.396-4.918,12.674,0.983,17.806,11.245c5.141,10.282,18.017,9.856,32.588,9.956c13.405,0.093,344.731-0.1,366.468-0.1
		c19.963,0,19.525-15.226,20.554-24.479c0.767-6.905-1.704-76.457,0.578-111.615c0.774-11.948,7.002-27.418,19.391-27.578
		c50.897,1.031,94.168,2.607,96.212,1.236c1.067,1.261,2.885,3.134,7.12,3.736c3.993,0.568,7.261-1.438,7.261-1.438
		s3.581,5.222,11.893,5.022c8.614-0.206,18.493-16.257,18.493-44.475v-0.264v-0.368v-0.265
		C783.234,24.097,773.355,8.045,764.741,7.839z M583.971,222.429c-7.765,0-14.06-6.295-14.06-14.06
		c0-7.764,6.295-14.059,14.06-14.059c7.764,0,14.059,6.295,14.059,14.059C598.029,216.134,591.734,222.429,583.971,222.429z"/>
	<path fill="#FFFFFF" d="M220.816,109.058h5.948c0.531,0,0.921,0.091,1.071,0.243c0.092,0.094,0.301,0.407,0.301,1.273v47.464
		c0,0.426-0.065,0.993-0.374,1.299c-0.037,0.035-0.381,0.338-1.698,0.338h-5.248v6.244h46.205l1.001-25.521h-5.82l-0.148,1.445
		c-1.248,11.999-5.639,17.832-13.425,17.832h-8.047c-0.85,0-1.245-0.155-1.337-0.241c-0.159-0.145-0.239-0.424-0.239-0.827v-22.216
		h2.378c2.042,0,3.608,0.758,4.787,2.314c1.305,1.717,2.018,4.731,2.121,8.96l0.037,1.565h5.77v-30.947h-5.763l-0.044,1.562
		c-0.103,3.73-0.806,6.483-2.089,8.184c-1.174,1.56-2.583,2.285-4.427,2.285h-2.77v-19.739c0-0.952,0.215-1.292,0.282-1.371
		c0.034-0.045,0.119-0.146,0.528-0.146H250c2.718,0,4.869,1.036,6.572,3.17c1.837,2.303,3.224,6.551,4.121,12.618l0.205,1.382h5.598
		l-1.147-23.411h-44.533V109.058z"/>
	<path fill="#FFFFFF" d="M117.062,126.889c-1.898-1.971-4.456-3.572-7.627-4.785c2.305-1.224,4.168-2.69,5.573-4.383
		c2.201-2.653,3.318-5.899,3.318-9.651c0-4.495-1.591-8.289-4.732-11.282c-3.139-3-7.653-4.521-13.418-4.521H71.361v6.241h6.264
		c0.64,0,1.093,0.128,1.343,0.374c0.341,0.34,0.413,0.986,0.413,1.468v47.989c0,0.06,0,0.195-0.312,0.449
		c-0.123,0.103-0.54,0.339-1.725,0.339h-5.982v6.244h28c4.378,0,8.362-0.867,11.844-2.574c3.529-1.731,6.103-3.904,7.652-6.459
		c1.539-2.531,2.319-5.458,2.319-8.702C121.175,133.352,119.792,129.735,117.062,126.889z M105.57,102.193
		c0.735,1.39,1.106,3.419,1.106,6.033c0,4.264-0.772,7.305-2.305,9.049c-1.461,1.678-3.398,2.49-5.922,2.49h-8.159v-19.745
		c0-0.604,0.122-1.053,0.311-1.184c0.075-0.042,0.837-0.41,4.293-0.41c4.653,0,6.773,0.52,7.732,0.957
		C103.922,99.972,104.883,100.89,105.57,102.193z M90.642,148.809c-0.228-0.223-0.353-0.691-0.353-1.318v-21.484h9.008
		c3.127,0,5.496,0.969,7.237,2.965c1.803,2.061,2.716,4.979,2.716,8.675c0,4.053-0.864,7.026-2.57,8.839
		c-1.642,1.752-4.33,2.643-7.982,2.643h-6.301C90.981,149.127,90.651,148.821,90.642,148.809z"/>
	<path fill="#FFFFFF" d="M169.91,139.67h-5.695l-0.211,1.372c-1.082,7.061-2.782,12.033-5.05,14.775
		c-2.153,2.595-4.837,3.857-8.211,3.857h-7.305c-1.751,0-2.186-0.296-2.188-0.298c-0.099-0.084-0.265-0.437-0.265-1.221v-47.259
		c0-1.168,0.241-1.566,0.312-1.654c0.035-0.047,0.146-0.186,0.669-0.186h7.46v-6.241h-27.512v6.241h6.967
		c0.317,0,0.735,0.041,0.932,0.245c0.192,0.198,0.296,0.621,0.296,1.188v46.777c0,1.358-0.322,1.854-0.462,2.005
		c-0.087,0.095-0.472,0.402-1.787,0.402h-5.947v6.239h46.641L169.91,139.67z"/>
	<path fill="#FFFFFF" d="M181.639,153.745c3.203,1.83,7.591,2.759,13.043,2.759c6.434,0,11.678-2.13,15.586-6.332
		c3.454-3.714,5.207-9.045,5.207-15.844v-29.443c0-2.221,0.43-3.896,1.283-4.97c0.745-0.947,1.915-1.407,3.571-1.407h3.096v-6.241
		H200.38v6.241h1.691c2.27,0,3.21,0.239,3.564,0.381c0.567,0.229,1.021,0.569,1.393,1.038c0.405,0.52,0.733,1.304,0.975,2.33
		c0.261,1.116,0.393,2.859,0.393,5.182v27.499c0,4.317-1.118,7.781-3.327,10.292c-2.17,2.461-5.285,3.658-9.523,3.658
		c-3.013,0-5.456-0.688-7.262-2.048c-1.854-1.389-3.095-3.215-3.793-5.579c-0.493-1.637-0.742-4.187-0.742-7.578V99.863
		c0-0.531,0.098-0.926,0.273-1.092c0.002-0.001,0.294-0.264,1.514-0.264h6.51v-6.241h-27.408v6.241h6.628
		c0.426,0,0.996,0.055,1.269,0.317c0.083,0.08,0.338,0.322,0.338,1.038v36.163c0,3.826,0.546,7.078,1.627,9.672
		C175.974,149.175,178.375,151.881,181.639,153.745z"/>
	<path fill="#FFFFFF" d="M430.531,149.125c-2.008-0.031-2.675-0.285-2.836-0.365c-0.396-0.194-0.733-0.536-1.039-1.055
		l-15.968-26.498l10.259-17.209c1.225-2.093,2.552-3.632,3.948-4.576c0.902-0.611,2.211-0.919,3.889-0.919h1.69v-6.236h-22.242
		v6.213l1.667,0.023c2.706,0.036,3.54,0.498,3.727,0.633c0.435,0.322,0.619,0.694,0.619,1.251c0,0.533-0.221,1.56-1.279,3.413
		l-6.174,10.808l-8.496-14.325c-0.487-0.811-0.68-1.251-0.757-1.455c0.02-0.01,0.037-0.022,0.062-0.035
		c0.021-0.014,0.553-0.289,2.715-0.289h4.193v-6.236h-24.738v6.206l1.661,0.03c2.065,0.034,2.938,0.379,3.274,0.58
		c0.285,0.176,1.096,0.816,2.438,3.036l13.749,22.649l-10.56,17.557c-1.453,2.449-2.916,4.212-4.351,5.242
		c-1.362,0.983-2.862,1.493-4.59,1.558l-1.623,0.063v6.179h23.229v-6.242h-3.729c-0.935,0-1.587-0.192-1.987-0.586
		c-0.405-0.398-0.612-1.053-0.612-1.942c0-1.277,0.55-2.833,1.636-4.624l6.402-10.565l9.188,15.321
		c0.812,1.384,0.835,1.882,0.835,1.936c0,0.062,0,0.107-0.141,0.214c-0.006,0.002-0.384,0.247-1.837,0.247h-4.559v6.242h23.999
		v-6.217L430.531,149.125z"/>
	<path fill="#FFFFFF" d="M309.603,122.101c2.299-1.223,4.164-2.69,5.573-4.382c2.199-2.647,3.314-5.896,3.314-9.651
		c0-4.496-1.589-8.292-4.728-11.282c-3.141-2.998-7.657-4.519-13.423-4.519h-28.812v6.236h6.262c0.637,0,1.091,0.128,1.341,0.375
		c0.342,0.341,0.415,0.987,0.415,1.467v47.996c0,0.054,0,0.191-0.307,0.439c-0.127,0.104-0.551,0.345-1.727,0.345h-5.983v6.242h28
		c4.389,0,8.375-0.866,11.852-2.572c3.523-1.736,6.096-3.907,7.644-6.457c1.54-2.539,2.321-5.468,2.321-8.705
		c0-4.286-1.388-7.902-4.119-10.744C315.336,124.916,312.782,123.316,309.603,122.101z M305.741,102.19
		c0.733,1.389,1.104,3.42,1.104,6.036c0,4.253-0.775,7.298-2.299,9.044c-1.478,1.678-3.417,2.493-5.932,2.493h-8.16v-19.747
		c0-0.604,0.122-1.05,0.311-1.182c0.076-0.043,0.829-0.408,4.297-0.408c4.665,0,6.777,0.517,7.73,0.953
		C304.086,99.966,305.05,100.887,305.741,102.19z M290.804,148.803c-0.226-0.221-0.349-0.689-0.349-1.316v-21.48h9.005
		c3.131,0,5.502,0.969,7.245,2.957c1.797,2.064,2.709,4.985,2.709,8.685c0,4.053-0.861,7.026-2.564,8.837
		c-1.668,1.775-4.282,2.641-7.989,2.641h-6.297C291.148,149.125,290.819,148.818,290.804,148.803z"/>
	<path fill="#FFFFFF" d="M364.111,107.616c-4.104-2.854-8.589-4.302-13.326-4.302c-4.398,0-8.66,1.467-12.666,4.357
		c-3.944,2.839-7.086,6.802-9.343,11.778c-2.228,4.914-3.358,10.487-3.358,16.57c0,6.157,1.166,11.855,3.463,16.932
		c2.322,5.141,5.466,9.161,9.344,11.94c3.941,2.839,8.239,4.277,12.77,4.277c4.618,0,9.034-1.462,13.125-4.346
		c4.038-2.843,7.247-6.842,9.538-11.891c2.259-4.97,3.403-10.617,3.403-16.789c0-6.166-1.141-11.797-3.393-16.737
		C371.387,114.397,368.172,110.429,364.111,107.616z M337.668,135.979c0-9.531,1.346-16.444,4.006-20.545
		c2.529-3.898,5.693-5.794,9.673-5.794c2.485,0,4.689,0.822,6.73,2.514c2.098,1.744,3.748,4.51,4.907,8.223
		c1.218,3.886,1.835,9.394,1.835,16.373c0,6.404-0.654,11.608-1.947,15.476c-1.244,3.741-2.901,6.479-4.929,8.14
		c-1.976,1.617-4.201,2.407-6.809,2.407c-3.723,0-6.799-1.782-9.396-5.445C339.038,153.507,337.668,146.322,337.668,135.979z"/>
	<path fill="#FFFFFF" d="M496.035,110.819l1.254,0.028c1.994,0.048,3.421,0.658,4.365,1.869c1.047,1.344,1.581,3.548,1.581,6.551
		v29.526l-27.832-44.1h-13.679v6.153h3.507c0.819,0,1.474,0.14,1.941,0.417c0.047,0.028,0.518,0.332,1.967,2.259l0.252,0.337v40.019
		c0,2.173-0.56,3.946-1.717,5.428c-1.149,1.478-2.691,2.238-4.717,2.33l-1.233,0.058v6.099h21.364v-6.132l-1.257-0.024
		c-2.495-0.047-4.322-0.739-5.431-2.057c-1.093-1.296-1.648-3.384-1.648-6.206v-31.596l28.861,46.015h5.047V118.58
		c0-1.612,0.282-3.111,0.835-4.452c0.531-1.28,1.122-2.149,1.763-2.585c0.462-0.316,1.413-0.695,3.325-0.695h1.279v-6.153h-19.828
		V110.819z"/>
	<path fill="#FFFFFF" d="M548.065,130.715h5.931c1.5,0,2.055,0.311,2.228,0.445c0.204,0.163,0.332,0.354,0.332,0.8v5.643
		c0,3.81-1.001,6.813-3.066,9.188c-2.056,2.36-4.934,3.507-8.806,3.507c-2.809,0-5.279-0.838-7.345-2.492
		c-2.081-1.659-3.748-4.33-4.96-7.941c-1.25-3.725-1.886-9.028-1.886-15.763c0-6.953,0.636-12.382,1.89-16.134
		c1.208-3.634,2.95-6.381,5.175-8.163c2.244-1.796,4.722-2.671,7.563-2.671c3.678,0,6.874,1.754,9.764,5.358
		c2.313,2.891,4.371,7.72,6.119,14.355l0.295,1.118h4.883l-1.515-27.076h-4.562l-2.592,5.238c-2.21-1.797-4.256-3.09-6.095-3.854
		c-2.215-0.917-4.569-1.384-7.003-1.384c-4.244,0-8.484,1.49-12.597,4.43c-4.097,2.918-7.362,6.914-9.72,11.87
		c-2.35,4.944-3.539,10.599-3.539,16.811c0,6.187,1.184,11.821,3.521,16.751c2.347,4.952,5.595,8.854,9.654,11.588
		c4.064,2.734,8.538,4.123,13.296,4.123c3.409,0,6.511-0.914,9.223-2.716c1.956-1.304,3.73-3.087,5.292-5.322
		c0.633,2.317,1.253,4.719,1.852,7.171l0.279,1.149h4.853v-24.502c0-0.674,0.192-0.935,0.355-1.084
		c0.147-0.132,0.637-0.442,2.025-0.442h4.441v-5.96h-25.285V130.715z"/>
	<rect x="440.331" y="123.816" fill="#FFFFFF" width="12.635" height="6.216"/>
</g>
</svg>
